<?xml version="1.0" standalone="no"?><!DOCTYPE svg PUBLIC "-//W3C//DTD SVG 1.1//EN" "http://www.w3.org/Graphics/SVG/1.1/DTD/svg11.dtd"><svg t="1507353786863" class="icon" style="" viewBox="0 0 1024 1024" version="1.1" xmlns="http://www.w3.org/2000/svg" p-id="1464" xmlns:xlink="http://www.w3.org/1999/xlink" width="200" height="200"><defs><style type="text/css"></style></defs><path d="M860.91776 465.46944c0.1024-3.46112 0.43008-6.88128 0.43008-10.4448 0-179.65056-121.28256-325.24288-267.91936-325.24288-106.04544 0-194.92864 82.39104-237.42464 192.512-21.7088-17.83808-50.23744-39.09632-78.336-39.09632-71.7824 0-144.93696 67.93216-150.26176 154.23488-75.44832 32.39936-115.24096 125.11232-115.24096 228.59776 0 128.16384 82.88256 229.888 186.59328 234.496l0 0.512 645.85728 0 0-0.512c95.70304-4.62848 172.21632-98.46784 172.21632-216.92416C1016.85248 571.02336 950.04672 478.33088 860.91776 465.46944zM833.78176 862.98624l0 0.45056L198.77888 863.4368l0-0.45056c-87.83872-4.66944-147.00544-88.2688-147.00544-196.95616 0-96.78848 41.10336-177.60256 115.24096-197.44768-0.4096-4.42368-0.59392-8.94976-0.59392-13.55776 0-72.8064 50.64704-131.82976 110.08-131.82976 36.12672 0 70.43072 26.66496 89.98912 60.12928C424.0384 250.63424 484.33152 168.5504 593.44896 168.5504c130.7648 0 230.8096 132.28032 230.8096 286.47424 0 15.01184 0 29.63456-1.80224 44.01152l11.34592 0-6.02112 0.4096c79.81056 4.62848 149.504 85.21728 149.504 184.17664C977.26464 782.62272 913.65376 858.37824 833.78176 862.98624z" p-id="1465" fill="#ffffff"></path><path d="M224.6656 527.50336c-24.22784 25.62048-36.352 59.35104-36.352 101.19168 0 37.70368 11.22304 68.4032 33.71008 92.09856 22.46656 23.69536 52.16256 35.5328 89.088 35.5328 27.5456 0 51.07712-5.8368 70.61504-17.53088l0-41.53344c-19.53792 14.45888-40.30464 21.7088-62.30016 21.7088-26.0096 0-46.65344-8.31488-61.97248-24.94464-15.31904-16.62976-22.97856-39.6288-22.97856-68.99712 0-29.85984 8.11008-53.73952 24.35072-71.68 16.22016-17.92 37.2736-26.89024 63.13984-26.89024 21.99552 0 42.00448 6.61504 60.0064 19.84512l0-44.76928c-16.62976-8.31488-36.63872-12.45184-60.0064-12.45184C281.33376 489.0624 248.91392 501.88288 224.6656 527.50336z" p-id="1466" fill="#ffffff"></path><path d="M556.46208 489.0624c-40.32512 0-72.23296 12.20608-95.78496 36.57728-23.53152 24.39168-35.30752 57.67168-35.30752 99.84 0 39.23968 11.38688 70.8608 34.16064 94.86336s53.248 36.00384 91.40224 36.00384c39.07584 0 70.2464-12.36992 93.47072-37.15072 23.22432-24.7808 34.83648-57.32352 34.83648-97.62816 0-41.39008-10.87488-73.8304-32.6656-97.28C624.82432 500.79744 594.78016 489.0624 556.46208 489.0624zM612.78208 694.14912c-13.53728 16.54784-33.23904 24.82176-59.10528 24.82176-25.06752 0-45.03552-8.45824-59.88352-25.3952-14.848-16.91648-22.26176-40.07936-22.26176-69.46816 0-30.3104 7.35232-54.1696 22.03648-71.55712 14.70464-17.408 34.73408-26.07104 60.12928-26.07104 25.86624 0 45.568 8.2944 59.10528 24.92416s20.29568 40.48896 20.29568 71.55712C633.07776 653.86496 626.31936 677.60128 612.78208 694.14912z" p-id="1467" fill="#ffffff"></path><path d="M742.83008 715.38688c2.00704-4.07552 5.5296-8.35584 10.56768-12.82048s15.01184-11.83744 29.94176-22.15936c14.62272-10.07616 24.94464-19.92704 30.98624-29.53216s9.05216-20.992 9.05216-34.16064c0-14.76608-4.9152-26.48064-14.76608-35.14368-9.85088-8.66304-22.85568-12.98432-39.0144-12.98432-9.99424 0-18.69824 1.61792-26.112 4.83328-7.43424 3.23584-14.09024 7.90528-19.92704 13.98784l0 21.9136c6.53312-7.00416 13.57824-12.36992 21.11488-16.15872 7.53664-3.76832 14.99136-5.65248 22.38464-5.65248 10.48576 0 18.7392 2.7648 24.82176 8.25344s9.1136 13.06624 9.1136 22.67136c0 9.46176-2.56 17.89952-7.68 25.31328-5.12 7.43424-14.68416 16.05632-28.672 25.92768-13.68064 9.54368-23.7568 17.69472-30.22848 24.51456-6.47168 6.79936-11.10016 13.80352-13.9264 20.992-2.80576 7.20896-4.1984 15.93344-4.1984 26.25536l0 8.88832 112.39424 0 0-20.0704-88.86272 0C739.84 724.41856 740.84352 719.4624 742.83008 715.38688z" p-id="1468" fill="#ffffff"></path></svg>