<?xml version="1.0" standalone="no"?><!DOCTYPE svg PUBLIC "-//W3C//DTD SVG 1.1//EN" "http://www.w3.org/Graphics/SVG/1.1/DTD/svg11.dtd"><svg t="1507369862319" class="icon" style="" viewBox="0 0 1619 1024" version="1.1" xmlns="http://www.w3.org/2000/svg" p-id="1610" xmlns:xlink="http://www.w3.org/1999/xlink" width="316.2109375" height="200"><defs><style type="text/css"></style></defs><path d="M1472.206466 916.566085c54.839938-57.47837 99.709084-115.412298 99.709084-128.742053 0-58.623063-93.309015-89.675255-137.303352-45.692928-11.481244 11.478051-26.948521 14.797269-34.371653 7.376028-22.331982-22.325838 50.88282-63.516967 112.897527-63.516967 42.053406 0 65.740731 11.865314 86.29484 43.226251 37.012046 56.472142 21.92233 99.109628-63.823594 180.340059-38.245758 36.231828-69.537983 71.7421-69.537983 78.911662 0 7.169597 37.707082 16.008053 83.793382 19.641049 62.352974 4.915235 50.381512 7.418741-46.786977 9.784233l-130.580359 3.178826 99.709084-104.50616zM168.728066 706.04354C36.992597 625.730577-8.385344 522.540622 5.237113 334.263209 18.66375 148.692431 141.827374 25.368135 333.862843 5.208741 379.285608 0.440374 440.264635 3.387744 469.371817 11.758451 514.124193 24.628455 523.134403 36.928498 527.738585 91.436268L533.18328 155.894619 483.636849 130.058721C367.165006 69.324696 208.328513 119.755708 153.71726 234.809084 113.423124 319.699569 117.028701 469.270059 161.111771 541.555278 221.161906 640.022441 350.524711 675.045064 469.938384 625.164444l61.17586-25.553972 0 49.176975c0 64.59812-56.508694 90.130519-199.287912 90.044503-75.443738-0.045125-126.092236-10.227556-163.098266-32.788411zM808.911993 703.331883C716.513159 653.270623 654.690009 552.839498 642.281108 432.641649 620.611723 222.742597 721.967156 58.900109 899.878738 16.231396 1161.440447-46.499215 1342.586429 99.475668 1342.586429 372.983444c0 144.457815-39.687654 234.760522-135.178466 307.576086-56.076097 42.760209-83.190367 50.142659-198.620733 54.07869-106.937118 3.646464-146.921611-2.61632-199.875237-31.306335zM1154.751783 582.103075C1204.391051 532.477345 1210.21676 514.969583 1216.145287 397.599657 1223.759803 246.851202 1195.419613 172.93556 1113.834808 130.757889 1047.131414 96.273628 949.344551 96.640498 881.665961 131.628926 773.715638 187.437004 730.169275 379.565507 793.751309 519.51222c63.824913 140.48138 250.682316 172.879004 361.000474 62.590855z" p-id="1611" fill="#ffffff"></path></svg>