<?xml version="1.0" standalone="no"?><!DOCTYPE svg PUBLIC "-//W3C//DTD SVG 1.1//EN" "http://www.w3.org/Graphics/SVG/1.1/DTD/svg11.dtd"><svg t="1507370781943" class="icon" style="" viewBox="0 0 1024 1024" version="1.1" xmlns="http://www.w3.org/2000/svg" p-id="1754" xmlns:xlink="http://www.w3.org/1999/xlink" width="200" height="200"><defs><style type="text/css"></style></defs><path d="M804.571429 914.285714H219.428571c-62.171429 0-109.714286-47.542857-109.714285-109.714285V219.428571c0-62.171429 47.542857-109.714286 109.714285-109.714285h585.142858c62.171429 0 109.714286 47.542857 109.714285 109.714285v585.142858c0 62.171429-47.542857 109.714286-109.714285 109.714285z" fill="#ffffff" p-id="1755"></path><path d="M420.571429 449.828571h-32.914286c0-7.314286-3.657143-14.628571-7.314286-18.285714-7.314286-10.971429-21.942857-14.628571-36.571428-14.628571-21.942857 0-40.228571 7.314286-51.2 25.6-10.971429 14.628571-14.628571 32.914286-14.628572 58.514285 0 25.6 3.657143 43.885714 10.971429 58.514286 10.971429 18.285714 29.257143 29.257143 54.857143 29.257143 14.628571 0 25.6-3.657143 36.571428-10.971429 3.657143-3.657143 7.314286-14.628571 10.971429-25.6h32.914285c0 10.971429 0 18.285714-3.657142 25.6-3.657143 7.314286-3.657143 10.971429-10.971429 18.285715-14.628571 18.285714-36.571429 25.6-65.828571 25.6-40.228571 0-69.485714-18.285714-84.114286-51.2-7.314286-18.285714-10.971429-40.228571-10.971429-65.828572 0-36.571429 10.971429-65.828571 32.914286-87.771428 7.314286-7.314286 21.942857-14.628571 32.914286-18.285715 10.971429-3.657143 21.942857-7.314286 36.571428-7.314285 29.257143 0 51.2 10.971429 62.171429 29.257143 3.657143 7.314286 7.314286 18.285714 7.314286 29.257142zM541.257143 387.657143c25.6 0 51.2 14.628571 69.485714 40.228571 14.628571 21.942857 25.6 47.542857 25.6 76.8 0 32.914286-10.971429 62.171429-29.257143 84.114286-18.285714 21.942857-40.228571 29.257143-65.828571 29.257143-29.257143 0-51.2-14.628571-69.485714-40.228572-14.628571-21.942857-25.6-47.542857-25.6-76.8 0-32.914286 10.971429-62.171429 32.914285-84.114285 14.628571-18.285714 36.571429-29.257143 62.171429-29.257143z m-3.657143 32.914286c-18.285714 0-32.914286 10.971429-47.542857 29.257142-10.971429 14.628571-14.628571 32.914286-14.628572 54.857143 0 25.6 7.314286 47.542857 21.942858 62.171429 10.971429 14.628571 25.6 21.942857 43.885714 21.942857s36.571429-10.971429 47.542857-29.257143c10.971429-14.628571 14.628571-36.571429 14.628571-58.514286 0-25.6-7.314286-43.885714-21.942857-62.171428-10.971429-10.971429-25.6-18.285714-43.885714-18.285714zM694.857143 449.828571h-32.914286c3.657143-18.285714 10.971429-29.257143 18.285714-40.228571 14.628571-18.285714 32.914286-25.6 54.857143-25.6s40.228571 7.314286 51.2 21.942857c10.971429 10.971429 14.628571 25.6 14.628572 40.228572 0 14.628571-3.657143 29.257143-14.628572 43.885714-3.657143 7.314286-10.971429 14.628571-14.628571 18.285714l-36.571429 36.571429-25.6 25.6c-3.657143 3.657143-3.657143 7.314286-7.314285 10.971428H804.571429v32.914286h-138.971429v-7.314286c0-14.628571 3.657143-25.6 7.314286-32.914285 7.314286-14.628571 21.942857-32.914286 47.542857-58.514286 18.285714-18.285714 32.914286-32.914286 36.571428-40.228572 7.314286-10.971429 10.971429-21.942857 10.971429-29.257142 0-10.971429-3.657143-18.285714-10.971429-25.6-7.314286-3.657143-14.628571-7.314286-25.6-7.314286-10.971429 0-21.942857 3.657143-29.257142 10.971428 0 7.314286-3.657143 18.285714-7.314286 25.6z" fill="#ffffff" p-id="1756"></path></svg>