<?xml version="1.0" standalone="no"?>
<!DOCTYPE svg PUBLIC "-//W3C//DTD SVG 20010904//EN"
 "http://www.w3.org/TR/2001/REC-SVG-20010904/DTD/svg10.dtd">
<svg version="1.0" xmlns="http://www.w3.org/2000/svg"
 width="900.000000pt" height="351.000000pt" viewBox="0 0 900.000000 351.000000"
 preserveAspectRatio="xMidYMid meet">
<metadata>
Created by potrace 1.10, written by Peter Selinger 2001-2011
</metadata>
<g transform="translate(0.000000,351.000000) scale(0.100000,-0.100000)"
fill="#ffffff" stroke="none">
<path d="M1750 3496 c0 -10 -16 -17 -47 -21 -150 -20 -234 -37 -333 -70 -156
-51 -334 -132 -412 -186 -14 -11 -29 -19 -32 -19 -20 0 -225 -160 -313 -244
-131 -125 -289 -317 -326 -396 -4 -8 -21 -37 -37 -65 -32 -55 -69 -129 -95
-190 -9 -22 -20 -49 -25 -60 -17 -37 -70 -204 -81 -252 -35 -166 -43 -256 -44
-468 0 -214 5 -261 43 -455 15 -77 90 -290 102 -290 3 0 40 33 82 73 80 77
199 162 308 220 151 80 374 142 553 154 l96 6 3 329 c2 180 2 333 0 338 -7 19
-24 9 -125 -72 -192 -156 -314 -274 -402 -388 -78 -102 -105 -163 -105 -239 0
-71 -6 -74 -71 -33 -115 73 -199 208 -199 318 0 132 86 269 308 492 149 149
212 207 324 299 46 37 85 70 88 74 4 5 304 229 362 271 12 9 87 63 165 120 78
57 151 110 163 118 12 8 66 47 119 85 106 77 240 167 314 209 26 15 47 32 47
37 0 8 -14 21 -114 111 -25 22 -36 39 -31 47 8 13 24 12 145 -14 36 -7 108
-21 160 -30 52 -9 124 -23 160 -30 36 -8 108 -21 160 -30 88 -16 219 -42 247
-51 26 -7 -10 -47 -122 -132 -47 -35 -151 -118 -155 -122 -3 -4 -34 -29 -70
-56 -36 -27 -76 -59 -90 -71 -22 -18 -152 -122 -230 -183 -106 -83 -210 -166
-237 -189 l-33 -28 0 -657 0 -657 26 -24 c15 -14 31 -25 37 -25 5 0 32 -13 59
-30 26 -16 52 -30 57 -30 4 0 6 34 3 76 -7 109 28 265 84 370 62 116 179 247
284 315 197 129 521 179 735 113 218 -67 402 -196 508 -356 44 -67 93 -162
102 -201 7 -28 32 -54 41 -44 13 12 16 393 5 482 -17 136 -28 200 -40 237 -5
18 -27 87 -47 153 -21 66 -41 127 -45 135 -4 8 -32 67 -63 131 -63 130 -158
277 -252 390 -70 84 -239 248 -294 286 -19 13 -53 37 -75 53 -48 36 -181 117
-250 153 -45 23 -80 39 -180 81 -16 7 -57 21 -90 31 -33 9 -68 22 -79 27 -19
10 -71 21 -191 39 -112 17 -140 25 -137 37 1 9 -53 12 -208 12 -176 0 -210 -2
-210 -14z m1208 -811 c2 -11 13 -39 23 -62 10 -23 19 -48 19 -55 0 -26 65 -75
130 -98 118 -42 118 -60 0 -100 -92 -31 -118 -53 -137 -118 -26 -87 -41 -117
-60 -117 -12 0 -22 13 -31 40 -7 22 -19 54 -26 70 -8 17 -17 40 -20 52 -10 31
-25 40 -115 72 -45 16 -85 31 -87 34 -12 12 8 45 29 50 12 3 38 11 57 17 86
31 100 40 116 77 9 21 20 46 25 55 5 10 9 22 9 28 0 6 7 27 15 46 16 39 47 44
53 9z"/>
<path d="M6617 2150 c-18 -47 -109 -197 -177 -295 -84 -119 -59 -160 70 -116
83 29 185 78 200 96 22 26 -36 18 -107 -15 -101 -47 -125 -36 -74 36 17 25 31
47 31 50 0 3 11 20 24 37 13 18 45 74 72 126 45 89 47 94 29 107 -32 24 -51
16 -68 -26z"/>
<path d="M8695 2093 c-74 -31 -210 -105 -230 -125 -20 -20 -20 -20 10 -14 109
25 137 28 148 17 13 -13 -7 -53 -63 -121 -49 -60 -54 -86 -28 -128 l20 -33
-27 -28 c-14 -16 -42 -37 -61 -47 -19 -10 -34 -22 -34 -26 0 -5 -4 -8 -9 -8
-14 0 -80 -44 -81 -52 0 -12 28 -9 35 3 4 5 17 14 28 20 12 5 29 13 37 19 8 5
51 26 95 46 44 20 108 49 141 65 34 16 68 29 77 29 8 0 18 8 22 17 10 28 -38
63 -85 63 -70 0 -66 41 9 83 67 37 161 141 161 178 0 33 -21 47 -82 54 -28 3
-57 -1 -83 -12z"/>
<path d="M4956 2000 c-27 -5 -54 -14 -59 -19 -6 -6 -18 -11 -26 -11 -13 0
-109 -43 -183 -81 -10 -5 -24 -9 -32 -9 -22 0 -30 -20 -14 -36 35 -35 193 -35
264 0 16 9 66 19 111 24 44 5 86 13 92 16 19 12 13 81 -8 100 -24 22 -79 28
-145 16z"/>
<path d="M8358 1993 c-47 -58 -84 -158 -73 -202 3 -14 18 -51 32 -83 26 -59
52 -76 96 -62 44 13 47 51 17 166 -12 45 -17 89 -14 107 7 35 -12 91 -31 91
-6 0 -19 -8 -27 -17z"/>
<path d="M6010 1877 c-60 -16 -64 -40 -11 -66 22 -12 46 -21 54 -21 16 0 57
-41 57 -58 0 -16 88 -15 118 1 13 6 31 24 40 39 16 27 16 29 -8 52 -53 49
-170 75 -250 53z"/>
<path d="M6775 1851 c4 -13 -8 -36 -37 -72 -71 -90 -231 -250 -270 -270 -48
-25 -60 -48 -56 -112 3 -47 5 -52 29 -55 20 -2 35 8 75 56 56 68 124 117 180
131 22 5 48 12 59 16 14 4 30 -1 48 -15 35 -27 36 -70 3 -168 -38 -118 -95
-181 -131 -146 -24 25 -18 51 20 81 46 37 45 57 -2 69 -30 7 -39 15 -47 42
-13 47 -40 39 -44 -13 -3 -37 -33 -85 -54 -85 -12 0 -108 -73 -103 -78 4 -4
59 18 97 38 10 6 29 10 43 10 28 0 39 -25 33 -81 -2 -27 -10 -37 -38 -51 -116
-57 -141 -61 -165 -24 -8 13 -13 31 -9 40 3 9 2 16 -4 16 -14 0 -27 -79 -15
-91 14 -14 121 -13 156 0 16 6 39 11 53 11 24 0 24 0 23 -102 0 -160 -23 -198
-116 -198 -57 0 -61 -14 -9 -34 24 -9 52 -26 61 -36 26 -29 61 -25 82 8 10 15
23 33 30 40 9 10 13 58 13 171 0 170 3 181 53 181 40 0 111 35 131 64 26 41
21 56 -19 56 -19 0 -35 5 -35 10 0 6 21 32 46 58 66 68 116 162 112 209 -2 30
-10 42 -38 61 -32 22 -41 23 -115 18 -44 -4 -90 -9 -102 -13 -40 -9 -27 27 30
89 125 135 140 188 51 188 -20 0 -24 -4 -19 -19z"/>
<path d="M7515 1831 c-3 -10 -12 -97 -20 -192 -8 -96 -19 -232 -25 -304 -6
-71 -15 -164 -20 -205 -18 -146 -21 -263 -7 -290 12 -24 67 -58 94 -60 9 0 13
59 16 237 3 215 16 377 46 588 18 121 15 157 -19 203 -32 45 -55 53 -65 23z"/>
<path d="M4936 1738 c-8 -13 -22 -43 -32 -68 -23 -61 -29 -67 -93 -97 -31 -14
-94 -44 -141 -66 -47 -22 -100 -43 -119 -46 -49 -8 -49 -26 -2 -71 45 -43 89
-56 154 -46 82 12 82 12 85 -12 2 -13 -4 -38 -12 -57 -9 -18 -16 -36 -16 -40
0 -25 -181 -358 -201 -371 -16 -10 -9 -34 9 -34 15 0 84 62 137 123 24 27 76
120 103 183 15 37 35 72 43 76 10 7 42 -17 122 -94 240 -231 273 -259 308
-264 21 -3 41 0 53 9 18 13 18 16 3 62 -20 59 -67 120 -121 161 -44 33 -154
92 -196 105 -44 13 -163 59 -168 64 -8 8 30 118 55 158 19 30 44 48 131 90 86
42 109 58 116 80 16 43 -8 77 -66 94 -32 9 -56 25 -75 48 -32 40 -57 44 -77
13z"/>
<path d="M2885 1636 c-5 -2 -36 -12 -68 -21 -121 -36 -224 -111 -293 -214 -24
-36 -44 -73 -44 -81 0 -9 -4 -20 -10 -26 -5 -5 -14 -42 -21 -83 -36 -237 68
-401 254 -401 75 0 157 26 194 62 18 18 33 36 33 40 0 4 -47 8 -104 8 -113 0
-144 10 -181 59 -28 38 -27 151 3 208 40 78 96 113 220 138 67 14 83 14 161 0
246 -45 347 -191 305 -445 -29 -176 -81 -276 -209 -402 -32 -32 -88 -75 -124
-96 -76 -45 -174 -92 -191 -92 -7 0 -26 -6 -43 -14 -74 -32 -166 -46 -315 -46
-163 0 -244 14 -482 85 -30 9 -73 21 -95 27 -22 5 -53 16 -70 23 -75 31 -96
37 -102 31 -3 -3 -4 -8 -2 -9 103 -85 436 -277 480 -277 8 0 66 -23 101 -41
15 -7 102 -29 238 -58 65 -15 398 -10 475 7 275 57 496 213 612 432 70 131 98
246 98 400 0 220 -57 392 -180 543 -71 88 -229 182 -370 223 -54 15 -245 29
-270 20z"/>
<path d="M8580 1554 c-6 -14 -10 -31 -10 -38 0 -27 -52 -59 -181 -112 -204
-85 -248 -99 -259 -88 -11 11 14 40 74 89 61 49 89 76 84 81 -3 2 -11 -2 -18
-11 -7 -8 -17 -15 -22 -15 -10 0 -163 -116 -203 -153 -11 -10 -30 -23 -41 -27
-18 -7 -22 -16 -21 -59 1 -46 3 -51 24 -51 34 0 105 18 238 62 161 52 165 53
165 36 0 -9 -12 -33 -27 -54 -34 -50 -35 -105 -3 -140 33 -34 27 -35 212 35
32 12 70 21 85 19 25 -3 28 -7 25 -33 -5 -46 -45 -126 -81 -163 -37 -37 -158
-98 -234 -118 -29 -8 -78 -14 -109 -14 -56 0 -75 -11 -42 -24 28 -11 187 -6
289 9 55 8 103 15 108 15 23 1 104 93 135 155 30 61 35 80 36 149 1 75 0 79
-27 100 -25 18 -41 21 -125 19 -53 -1 -99 0 -104 3 -4 3 12 31 36 63 38 49 52
60 93 71 74 19 322 142 322 160 0 17 -83 60 -117 60 -12 0 -38 -6 -56 -14 -65
-27 -110 -29 -152 -7 -53 29 -82 27 -94 -5z"/>
<path d="M8310 1510 c-8 -5 -11 -12 -7 -16 4 -4 13 -2 19 4 15 15 7 24 -12 12z"/>
<path d="M6105 1448 c-63 -79 -120 -135 -143 -142 -20 -7 -52 -71 -52 -105 0
-61 61 -112 112 -92 36 13 97 88 104 128 3 18 1 52 -4 76 -9 34 -8 52 8 99 10
31 23 66 30 77 21 40 -6 20 -55 -41z"/>
<path d="M1211 893 c-46 -6 -106 -17 -135 -24 -109 -25 -108 -25 69 -58 33 -6
85 -18 115 -27 106 -30 155 -46 175 -54 11 -5 45 -19 75 -31 61 -25 185 -97
240 -139 62 -47 233 -147 285 -165 28 -10 55 -22 61 -27 11 -8 61 -20 164 -39
73 -14 331 -4 395 14 105 31 217 88 310 159 42 32 137 129 132 135 -3 2 -22
-6 -42 -17 -98 -55 -221 -80 -390 -80 -179 0 -314 28 -460 95 -63 29 -244 114
-326 154 -47 22 -91 41 -98 41 -6 0 -19 4 -29 9 -39 22 -163 50 -262 61 -116
12 -156 11 -279 -7z"/>
<path d="M695 640 c-133 -37 -172 -52 -237 -91 -143 -86 -210 -214 -141 -269
36 -28 87 -20 173 28 117 66 237 113 375 148 134 34 421 19 520 -27 38 -17
148 -49 153 -44 9 9 -40 55 -102 96 -32 21 -60 39 -63 39 -2 0 -34 14 -70 31
-65 30 -100 41 -253 80 -80 20 -295 25 -355 9z"/>
</g>
</svg>
